<?xml version="1.0" encoding="UTF-8" standalone="no"?><svg xmlns="http://www.w3.org/2000/svg" xmlns:xlink="http://www.w3.org/1999/xlink" contentScriptType="application/ecmascript" contentStyleType="text/css" height="657px" preserveAspectRatio="none" style="width:1221px;height:657px;" version="1.1" viewBox="0 0 1221 657" width="1221px" zoomAndPan="magnify"><defs><filter height="300%" id="fh3qqkbs0r8py" width="300%" x="-1" y="-1"><feGaussianBlur result="blurOut" stdDeviation="2.0"/><feColorMatrix in="blurOut" result="blurOut2" type="matrix" values="0 0 0 0 0 0 0 0 0 0 0 0 0 0 0 0 0 0 .4 0"/><feOffset dx="4.0" dy="4.0" in="blurOut2" result="blurOut3"/><feBlend in="SourceGraphic" in2="blurOut3" mode="normal"/></filter></defs><g><rect fill="#FFFFFF" filter="url(#fh3qqkbs0r8py)" height="178.6641" style="stroke: #FFFFFF; stroke-width: 1.0;" width="10" x="120" y="112.5625"/><line style="stroke: #A80036; stroke-width: 1.0;" x1="120" x2="120" y1="112.5625" y2="291.2266"/><line style="stroke: #A80036; stroke-width: 1.0;" x1="130" x2="130" y1="112.5625" y2="291.2266"/><line style="stroke: #A80036; stroke-width: 1.0;" x1="120" x2="130" y1="112.5625" y2="112.5625"/><rect fill="#FFFFFF" filter="url(#fh3qqkbs0r8py)" height="135.3984" style="stroke: #FFFFFF; stroke-width: 1.0;" width="10" x="120" y="319.2266"/><line style="stroke: #A80036; stroke-width: 1.0;" x1="120" x2="120" y1="319.2266" y2="454.625"/><line style="stroke: #A80036; stroke-width: 1.0;" x1="130" x2="130" y1="319.2266" y2="454.625"/><line style="stroke: #A80036; stroke-width: 1.0;" x1="120" x2="130" y1="454.625" y2="454.625"/><rect fill="#FFFFFF" filter="url(#fh3qqkbs0r8py)" height="72.2656" style="stroke: #A80036; stroke-width: 1.0;" width="10" x="120" y="554.8906"/><rect fill="#FFFFFF" filter="url(#fh3qqkbs0r8py)" height="149.5313" style="stroke: #FFFFFF; stroke-width: 1.0;" width="10" x="235.5" y="141.6953"/><line style="stroke: #A80036; stroke-width: 1.0;" x1="235.5" x2="235.5" y1="141.6953" y2="291.2266"/><line style="stroke: #A80036; stroke-width: 1.0;" x1="245.5" x2="245.5" y1="141.6953" y2="291.2266"/><line style="stroke: #A80036; stroke-width: 1.0;" x1="235.5" x2="245.5" y1="141.6953" y2="141.6953"/><rect fill="#FFFFFF" filter="url(#fh3qqkbs0r8py)" height="121.3984" style="stroke: #FFFFFF; stroke-width: 1.0;" width="10" x="235.5" y="319.2266"/><line style="stroke: #A80036; stroke-width: 1.0;" x1="235.5" x2="235.5" y1="319.2266" y2="440.625"/><line style="stroke: #A80036; stroke-width: 1.0;" x1="245.5" x2="245.5" y1="319.2266" y2="440.625"/><line style="stroke: #A80036; stroke-width: 1.0;" x1="235.5" x2="245.5" y1="440.625" y2="440.625"/><rect fill="#FFFFFF" filter="url(#fh3qqkbs0r8py)" height="29.1328" style="stroke: #A80036; stroke-width: 1.0;" width="10" x="417.5" y="170.8281"/><rect fill="#FFFFFF" filter="url(#fh3qqkbs0r8py)" height="29.1328" style="stroke: #A80036; stroke-width: 1.0;" width="10" x="539" y="254.0938"/><rect fill="#FFFFFF" filter="url(#fh3qqkbs0r8py)" height="86.2656" style="stroke: #A80036; stroke-width: 1.0;" width="10" x="722" y="340.3594"/><rect fill="#FFFFFF" filter="url(#fh3qqkbs0r8py)" height="43.1328" style="stroke: #A80036; stroke-width: 1.0;" width="10" x="955" y="369.4922"/><line style="stroke: #A80036; stroke-width: 1.0;" x1="32" x2="32" y1="38.2969" y2="291.2266"/><line style="stroke: #A80036; stroke-width: 1.0; stroke-dasharray: 1.0,4.0;" x1="32" x2="32" y1="291.2266" y2="319.2266"/><line style="stroke: #A80036; stroke-width: 1.0;" x1="32" x2="32" y1="319.2266" y2="462.625"/><line style="stroke: #A80036; stroke-width: 1.0; stroke-dasharray: 1.0,4.0;" x1="32" x2="32" y1="462.625" y2="490.625"/><line style="stroke: #A80036; stroke-width: 1.0;" x1="32" x2="32" y1="490.625" y2="645.1563"/><line style="stroke: #A80036; stroke-width: 1.0;" x1="125" x2="125" y1="38.2969" y2="291.2266"/><line style="stroke: #A80036; stroke-width: 1.0; stroke-dasharray: 1.0,4.0;" x1="125" x2="125" y1="291.2266" y2="319.2266"/><line style="stroke: #A80036; stroke-width: 1.0;" x1="125" x2="125" y1="319.2266" y2="462.625"/><line style="stroke: #A80036; stroke-width: 1.0; stroke-dasharray: 1.0,4.0;" x1="125" x2="125" y1="462.625" y2="490.625"/><line style="stroke: #A80036; stroke-width: 1.0;" x1="125" x2="125" y1="490.625" y2="645.1563"/><line style="stroke: #A80036; stroke-width: 1.0;" x1="240" x2="240" y1="38.2969" y2="291.2266"/><line style="stroke: #A80036; stroke-width: 1.0; stroke-dasharray: 1.0,4.0;" x1="240" x2="240" y1="291.2266" y2="319.2266"/><line style="stroke: #A80036; stroke-width: 1.0;" x1="240" x2="240" y1="319.2266" y2="462.625"/><line style="stroke: #A80036; stroke-width: 1.0; stroke-dasharray: 1.0,4.0;" x1="240" x2="240" y1="462.625" y2="490.625"/><line style="stroke: #A80036; stroke-width: 1.0;" x1="240" x2="240" y1="490.625" y2="645.1563"/><line style="stroke: #A80036; stroke-width: 1.0;" x1="422.5" x2="422.5" y1="38.2969" y2="291.2266"/><line style="stroke: #A80036; stroke-width: 1.0; stroke-dasharray: 1.0,4.0;" x1="422.5" x2="422.5" y1="291.2266" y2="319.2266"/><line style="stroke: #A80036; stroke-width: 1.0;" x1="422.5" x2="422.5" y1="319.2266" y2="462.625"/><line style="stroke: #A80036; stroke-width: 1.0; stroke-dasharray: 1.0,4.0;" x1="422.5" x2="422.5" y1="462.625" y2="490.625"/><line style="stroke: #A80036; stroke-width: 1.0;" x1="422.5" x2="422.5" y1="490.625" y2="645.1563"/><line style="stroke: #A80036; stroke-width: 1.0;" x1="543.5" x2="543.5" y1="38.2969" y2="291.2266"/><line style="stroke: #A80036; stroke-width: 1.0; stroke-dasharray: 1.0,4.0;" x1="543.5" x2="543.5" y1="291.2266" y2="319.2266"/><line style="stroke: #A80036; stroke-width: 1.0;" x1="543.5" x2="543.5" y1="319.2266" y2="462.625"/><line style="stroke: #A80036; stroke-width: 1.0; stroke-dasharray: 1.0,4.0;" x1="543.5" x2="543.5" y1="462.625" y2="490.625"/><line style="stroke: #A80036; stroke-width: 1.0;" x1="543.5" x2="543.5" y1="490.625" y2="645.1563"/><line style="stroke: #A80036; stroke-width: 1.0;" x1="726.5" x2="726.5" y1="38.2969" y2="291.2266"/><line style="stroke: #A80036; stroke-width: 1.0; stroke-dasharray: 1.0,4.0;" x1="726.5" x2="726.5" y1="291.2266" y2="319.2266"/><line style="stroke: #A80036; stroke-width: 1.0;" x1="726.5" x2="726.5" y1="319.2266" y2="462.625"/><line style="stroke: #A80036; stroke-width: 1.0; stroke-dasharray: 1.0,4.0;" x1="726.5" x2="726.5" y1="462.625" y2="490.625"/><line style="stroke: #A80036; stroke-width: 1.0;" x1="726.5" x2="726.5" y1="490.625" y2="645.1563"/><line style="stroke: #A80036; stroke-width: 1.0;" x1="959.5" x2="959.5" y1="38.2969" y2="291.2266"/><line style="stroke: #A80036; stroke-width: 1.0; stroke-dasharray: 1.0,4.0;" x1="959.5" x2="959.5" y1="291.2266" y2="319.2266"/><line style="stroke: #A80036; stroke-width: 1.0;" x1="959.5" x2="959.5" y1="319.2266" y2="462.625"/><line style="stroke: #A80036; stroke-width: 1.0; stroke-dasharray: 1.0,4.0;" x1="959.5" x2="959.5" y1="462.625" y2="490.625"/><line style="stroke: #A80036; stroke-width: 1.0;" x1="959.5" x2="959.5" y1="490.625" y2="645.1563"/><line style="stroke: #A80036; stroke-width: 1.0;" x1="1149.5" x2="1149.5" y1="38.2969" y2="291.2266"/><line style="stroke: #A80036; stroke-width: 1.0; stroke-dasharray: 1.0,4.0;" x1="1149.5" x2="1149.5" y1="291.2266" y2="319.2266"/><line style="stroke: #A80036; stroke-width: 1.0;" x1="1149.5" x2="1149.5" y1="319.2266" y2="462.625"/><line style="stroke: #A80036; stroke-width: 1.0; stroke-dasharray: 1.0,4.0;" x1="1149.5" x2="1149.5" y1="462.625" y2="490.625"/><line style="stroke: #A80036; stroke-width: 1.0;" x1="1149.5" x2="1149.5" y1="490.625" y2="645.1563"/><rect fill="#FEFECE" filter="url(#fh3qqkbs0r8py)" height="30.2969" style="stroke: #A80036; stroke-width: 1.5;" width="44" x="8" y="3"/><text fill="#000000" font-family="sans-serif" font-size="14" lengthAdjust="spacingAndGlyphs" textLength="30" x="15" y="22.9951">AMS</text><rect fill="#FEFECE" filter="url(#fh3qqkbs0r8py)" height="30.2969" style="stroke: #A80036; stroke-width: 1.5;" width="110" x="68" y="3"/><text fill="#000000" font-family="sans-serif" font-size="14" lengthAdjust="spacingAndGlyphs" textLength="96" x="75" y="22.9951">ActivityThread</text><rect fill="#FEFECE" filter="url(#fh3qqkbs0r8py)" height="30.2969" style="stroke: #A80036; stroke-width: 1.5;" width="93" x="192" y="3"/><text fill="#000000" font-family="sans-serif" font-size="14" lengthAdjust="spacingAndGlyphs" textLength="79" x="199" y="22.9951">MainActivity</text><rect fill="#FEFECE" filter="url(#fh3qqkbs0r8py)" height="30.2969" style="stroke: #A80036; stroke-width: 1.5;" width="68" x="386.5" y="3"/><text fill="#000000" font-family="sans-serif" font-size="14" lengthAdjust="spacingAndGlyphs" textLength="54" x="393.5" y="22.9951">Context</text><rect fill="#FEFECE" filter="url(#fh3qqkbs0r8py)" height="30.2969" style="stroke: #A80036; stroke-width: 1.5;" width="147" x="468.5" y="3"/><text fill="#000000" font-family="sans-serif" font-size="14" lengthAdjust="spacingAndGlyphs" textLength="133" x="475.5" y="22.9951">SharedPreferences</text><rect fill="#FEFECE" filter="url(#fh3qqkbs0r8py)" height="30.2969" style="stroke: #A80036; stroke-width: 1.5;" width="191" x="629.5" y="3"/><text fill="#000000" font-family="sans-serif" font-size="14" lengthAdjust="spacingAndGlyphs" textLength="177" x="636.5" y="22.9951">SharedPreferences.Editor</text><rect fill="#FEFECE" filter="url(#fh3qqkbs0r8py)" height="30.2969" style="stroke: #A80036; stroke-width: 1.5;" width="247" x="834.5" y="3"/><text fill="#000000" font-family="sans-serif" font-size="14" lengthAdjust="spacingAndGlyphs" textLength="233" x="841.5" y="22.9951">SharedPreferencesImpl.EditorImpl</text><rect fill="#FEFECE" filter="url(#fh3qqkbs0r8py)" height="30.2969" style="stroke: #A80036; stroke-width: 1.5;" width="105" x="1095.5" y="3"/><text fill="#000000" font-family="sans-serif" font-size="14" lengthAdjust="spacingAndGlyphs" textLength="91" x="1102.5" y="22.9951">QueuedWork</text><rect fill="#FFFFFF" filter="url(#fh3qqkbs0r8py)" height="178.6641" style="stroke: #FFFFFF; stroke-width: 1.0;" width="10" x="120" y="112.5625"/><line style="stroke: #A80036; stroke-width: 1.0;" x1="120" x2="120" y1="112.5625" y2="291.2266"/><line style="stroke: #A80036; stroke-width: 1.0;" x1="130" x2="130" y1="112.5625" y2="291.2266"/><line style="stroke: #A80036; stroke-width: 1.0;" x1="120" x2="130" y1="112.5625" y2="112.5625"/><rect fill="#FFFFFF" filter="url(#fh3qqkbs0r8py)" height="135.3984" style="stroke: #FFFFFF; stroke-width: 1.0;" width="10" x="120" y="319.2266"/><line style="stroke: #A80036; stroke-width: 1.0;" x1="120" x2="120" y1="319.2266" y2="454.625"/><line style="stroke: #A80036; stroke-width: 1.0;" x1="130" x2="130" y1="319.2266" y2="454.625"/><line style="stroke: #A80036; stroke-width: 1.0;" x1="120" x2="130" y1="454.625" y2="454.625"/><rect fill="#FFFFFF" filter="url(#fh3qqkbs0r8py)" height="72.2656" style="stroke: #A80036; stroke-width: 1.0;" width="10" x="120" y="554.8906"/><rect fill="#FFFFFF" filter="url(#fh3qqkbs0r8py)" height="149.5313" style="stroke: #FFFFFF; stroke-width: 1.0;" width="10" x="235.5" y="141.6953"/><line style="stroke: #A80036; stroke-width: 1.0;" x1="235.5" x2="235.5" y1="141.6953" y2="291.2266"/><line style="stroke: #A80036; stroke-width: 1.0;" x1="245.5" x2="245.5" y1="141.6953" y2="291.2266"/><line style="stroke: #A80036; stroke-width: 1.0;" x1="235.5" x2="245.5" y1="141.6953" y2="141.6953"/><rect fill="#FFFFFF" filter="url(#fh3qqkbs0r8py)" height="121.3984" style="stroke: #FFFFFF; stroke-width: 1.0;" width="10" x="235.5" y="319.2266"/><line style="stroke: #A80036; stroke-width: 1.0;" x1="235.5" x2="235.5" y1="319.2266" y2="440.625"/><line style="stroke: #A80036; stroke-width: 1.0;" x1="245.5" x2="245.5" y1="319.2266" y2="440.625"/><line style="stroke: #A80036; stroke-width: 1.0;" x1="235.5" x2="245.5" y1="440.625" y2="440.625"/><rect fill="#FFFFFF" filter="url(#fh3qqkbs0r8py)" height="29.1328" style="stroke: #A80036; stroke-width: 1.0;" width="10" x="417.5" y="170.8281"/><rect fill="#FFFFFF" filter="url(#fh3qqkbs0r8py)" height="29.1328" style="stroke: #A80036; stroke-width: 1.0;" width="10" x="539" y="254.0938"/><rect fill="#FFFFFF" filter="url(#fh3qqkbs0r8py)" height="86.2656" style="stroke: #A80036; stroke-width: 1.0;" width="10" x="722" y="340.3594"/><rect fill="#FFFFFF" filter="url(#fh3qqkbs0r8py)" height="43.1328" style="stroke: #A80036; stroke-width: 1.0;" width="10" x="955" y="369.4922"/><rect fill="#EEEEEE" filter="url(#fh3qqkbs0r8py)" height="3" style="stroke: #EEEEEE; stroke-width: 1.0;" width="1206.5" x="3" y="68.8633"/><line style="stroke: #000000; stroke-width: 1.0;" x1="3" x2="1209.5" y1="68.8633" y2="68.8633"/><line style="stroke: #000000; stroke-width: 1.0;" x1="3" x2="1209.5" y1="71.8633" y2="71.8633"/><rect fill="#EEEEEE" filter="url(#fh3qqkbs0r8py)" height="23.1328" style="stroke: #000000; stroke-width: 2.0;" width="86" x="563.25" y="58.2969"/><text fill="#000000" font-family="sans-serif" font-size="13" font-weight="bold" lengthAdjust="spacingAndGlyphs" textLength="67" x="569.25" y="74.3638">onCreate</text><polygon fill="#A80036" points="108,108.5625,118,112.5625,108,116.5625,112,112.5625" style="stroke: #A80036; stroke-width: 1.0;"/><line style="stroke: #A80036; stroke-width: 1.0;" x1="32" x2="114" y1="112.5625" y2="112.5625"/><text fill="#000000" font-family="sans-serif" font-size="13" lengthAdjust="spacingAndGlyphs" textLength="69" x="39" y="107.4966">onCreate()</text><polygon fill="#A80036" points="223.5,137.6953,233.5,141.6953,223.5,145.6953,227.5,141.6953" style="stroke: #A80036; stroke-width: 1.0;"/><line style="stroke: #A80036; stroke-width: 1.0;" x1="130" x2="229.5" y1="141.6953" y2="141.6953"/><text fill="#000000" font-family="sans-serif" font-size="13" lengthAdjust="spacingAndGlyphs" textLength="69" x="137" y="136.6294">onCreate()</text><polygon fill="#A80036" points="405.5,166.8281,415.5,170.8281,405.5,174.8281,409.5,170.8281" style="stroke: #A80036; stroke-width: 1.0;"/><line style="stroke: #A80036; stroke-width: 1.0;" x1="245.5" x2="411.5" y1="170.8281" y2="170.8281"/><text fill="#000000" font-family="sans-serif" font-size="13" lengthAdjust="spacingAndGlyphs" textLength="153" x="252.5" y="165.7622">getSharedPreferences()</text><polygon fill="#A80036" points="256.5,195.9609,246.5,199.9609,256.5,203.9609,252.5,199.9609" style="stroke: #A80036; stroke-width: 1.0;"/><line style="stroke: #A80036; stroke-width: 1.0; stroke-dasharray: 2.0,2.0;" x1="250.5" x2="421.5" y1="199.9609" y2="199.9609"/><text fill="#000000" font-family="sans-serif" font-size="13" lengthAdjust="spacingAndGlyphs" textLength="122" x="262.5" y="194.895">SharedPreferences</text><polygon fill="#A80036" points="527,250.0938,537,254.0938,527,258.0938,531,254.0938" style="stroke: #A80036; stroke-width: 1.0;"/><line style="stroke: #A80036; stroke-width: 1.0;" x1="245.5" x2="533" y1="254.0938" y2="254.0938"/><text fill="#000000" font-family="sans-serif" font-size="13" lengthAdjust="spacingAndGlyphs" textLength="34" x="252.5" y="249.0278">edit()</text><polygon fill="#A80036" points="256.5,279.2266,246.5,283.2266,256.5,287.2266,252.5,283.2266" style="stroke: #A80036; stroke-width: 1.0;"/><line style="stroke: #A80036; stroke-width: 1.0; stroke-dasharray: 2.0,2.0;" x1="250.5" x2="543" y1="283.2266" y2="283.2266"/><text fill="#000000" font-family="sans-serif" font-size="13" lengthAdjust="spacingAndGlyphs" textLength="163" x="262.5" y="278.1606">SharedPreferences.Editor</text><polygon fill="#A80036" points="710,336.3594,720,340.3594,710,344.3594,714,340.3594" style="stroke: #A80036; stroke-width: 1.0;"/><line style="stroke: #A80036; stroke-width: 1.0;" x1="245.5" x2="716" y1="340.3594" y2="340.3594"/><text fill="#000000" font-family="sans-serif" font-size="13" lengthAdjust="spacingAndGlyphs" textLength="44" x="252.5" y="335.2935">apply()</text><polygon fill="#A80036" points="943,365.4922,953,369.4922,943,373.4922,947,369.4922" style="stroke: #A80036; stroke-width: 1.0;"/><line style="stroke: #A80036; stroke-width: 1.0;" x1="732" x2="949" y1="369.4922" y2="369.4922"/><text fill="#000000" font-family="sans-serif" font-size="13" lengthAdjust="spacingAndGlyphs" textLength="44" x="739" y="364.4263">apply()</text><polygon fill="#A80036" points="1138,394.625,1148,398.625,1138,402.625,1142,398.625" style="stroke: #A80036; stroke-width: 1.0;"/><line style="stroke: #A80036; stroke-width: 1.0;" x1="965" x2="1144" y1="398.625" y2="398.625"/><text fill="#000000" font-family="sans-serif" font-size="13" lengthAdjust="spacingAndGlyphs" textLength="93" x="972" y="393.5591">add(Runnable)</text><polygon fill="#A80036" points="743,408.625,733,412.625,743,416.625,739,412.625" style="stroke: #A80036; stroke-width: 1.0;"/><line style="stroke: #A80036; stroke-width: 1.0; stroke-dasharray: 2.0,2.0;" x1="737" x2="959" y1="412.625" y2="412.625"/><polygon fill="#A80036" points="256.5,422.625,246.5,426.625,256.5,430.625,252.5,426.625" style="stroke: #A80036; stroke-width: 1.0;"/><line style="stroke: #A80036; stroke-width: 1.0; stroke-dasharray: 2.0,2.0;" x1="250.5" x2="726" y1="426.625" y2="426.625"/><polygon fill="#A80036" points="141,436.625,131,440.625,141,444.625,137,440.625" style="stroke: #A80036; stroke-width: 1.0;"/><line style="stroke: #A80036; stroke-width: 1.0; stroke-dasharray: 2.0,2.0;" x1="135" x2="239.5" y1="440.625" y2="440.625"/><polygon fill="#A80036" points="43,450.625,33,454.625,43,458.625,39,454.625" style="stroke: #A80036; stroke-width: 1.0;"/><line style="stroke: #A80036; stroke-width: 1.0; stroke-dasharray: 2.0,2.0;" x1="37" x2="124" y1="454.625" y2="454.625"/><rect fill="#EEEEEE" filter="url(#fh3qqkbs0r8py)" height="3" style="stroke: #EEEEEE; stroke-width: 1.0;" width="1206.5" x="3" y="511.1914"/><line style="stroke: #000000; stroke-width: 1.0;" x1="3" x2="1209.5" y1="511.1914" y2="511.1914"/><line style="stroke: #000000; stroke-width: 1.0;" x1="3" x2="1209.5" y1="514.1914" y2="514.1914"/><rect fill="#EEEEEE" filter="url(#fh3qqkbs0r8py)" height="23.1328" style="stroke: #000000; stroke-width: 2.0;" width="82" x="565.25" y="500.625"/><text fill="#000000" font-family="sans-serif" font-size="13" font-weight="bold" lengthAdjust="spacingAndGlyphs" textLength="63" x="571.25" y="516.6919">onPause</text><polygon fill="#A80036" points="108,550.8906,118,554.8906,108,558.8906,112,554.8906" style="stroke: #A80036; stroke-width: 1.0;"/><line style="stroke: #A80036; stroke-width: 1.0;" x1="32" x2="114" y1="554.8906" y2="554.8906"/><text fill="#000000" font-family="sans-serif" font-size="13" lengthAdjust="spacingAndGlyphs" textLength="65" x="39" y="549.8247">onPause()</text><polygon fill="#A80036" points="228.5,580.0234,238.5,584.0234,228.5,588.0234,232.5,584.0234" style="stroke: #A80036; stroke-width: 1.0;"/><line style="stroke: #A80036; stroke-width: 1.0;" x1="130" x2="234.5" y1="584.0234" y2="584.0234"/><text fill="#000000" font-family="sans-serif" font-size="13" lengthAdjust="spacingAndGlyphs" textLength="65" x="137" y="578.9575">onPause()</text><polygon fill="#A80036" points="1138,609.1563,1148,613.1563,1138,617.1563,1142,613.1563" style="stroke: #A80036; stroke-width: 1.0;"/><line style="stroke: #A80036; stroke-width: 1.0;" x1="130" x2="1144" y1="613.1563" y2="613.1563"/><text fill="#000000" font-family="sans-serif" font-size="13" lengthAdjust="spacingAndGlyphs" textLength="86" x="137" y="608.0903">waitToFinish()</text><polygon fill="#A80036" points="43,623.1563,33,627.1563,43,631.1563,39,627.1563" style="stroke: #A80036; stroke-width: 1.0;"/><line style="stroke: #A80036; stroke-width: 1.0; stroke-dasharray: 2.0,2.0;" x1="37" x2="124" y1="627.1563" y2="627.1563"/><!--MD5=[88360c375bd742c2f068e601dce2b776]
@startuml
hide footbox
== onCreate ==
AMS -> ActivityThread ++ : onCreate()
ActivityThread -> MainActivity++ : onCreate()
MainActivity -> Context ++ : getSharedPreferences()
return SharedPreferences
|||

MainActivity -> SharedPreferences ++ : edit()
return SharedPreferences.Editor

......


MainActivity -> SharedPreferences.Editor ++ : apply()
SharedPreferences.Editor -> SharedPreferencesImpl.EditorImpl ++ : apply()
SharedPreferencesImpl.EditorImpl -> QueuedWork : add(Runnable)
return
return
return
return
......

== onPause ==

AMS -> ActivityThread ++ : onPause()
ActivityThread -> MainActivity : onPause()
ActivityThread -> QueuedWork : waitToFinish()
return
@enduml

PlantUML version 1.2020.07beta8(Unknown compile time)
(GPL source distribution)
Java Runtime: Java(TM) SE Runtime Environment
JVM: Java HotSpot(TM) 64-Bit Server VM
Java Version: 1.7.0_25-b15
Operating System: Linux
Default Encoding: UTF-8
Language: en
Country: US
--></g></svg>